<svg id="レイヤー_1" data-name="レイヤー 1" xmlns="http://www.w3.org/2000/svg" viewBox="0 0 16 16"><defs><style>.cls-1{fill:#707684;}.cls-2{fill:#4a5064;}.cls-3{fill:#dee451;}.cls-4{fill:#a40b5d;}.cls-5{fill:#252c41;}.cls-6{font-size:5.67px;font-family:MeiryoUI, Meiryo UI;}.cls-6,.cls-7{fill:#fff;}</style></defs><path class="cls-1" d="M200.46,32" transform="translate(-11.2 -10.19)"/><path class="cls-2" d="M27.2,11.43V25A1.24,1.24,0,0,1,26,26.19H12.44A1.24,1.24,0,0,1,11.2,25V23.4a1.24,1.24,0,0,1,1.24-1.24H18a1.25,1.25,0,0,0,1.24-1.24V11.43a1.25,1.25,0,0,1,1.24-1.24H26A1.25,1.25,0,0,1,27.2,11.43Z" transform="translate(-11.2 -10.19)"/><rect class="cls-3" width="8" height="11.96" rx="1.24"/><rect class="cls-4" x="7.97" y="5.03" width="8.03" height="10.97" rx="1.13"/><rect class="cls-5" x="1.21" y="1.21" width="13.59" height="13.59" rx="5.67"/><text class="cls-6" transform="translate(2.06 9.2)">NPA</text><rect class="cls-7" x="2.57" y="10.86" width="5.43" height="1.11" rx="0.55"/></svg>